<svg width="222" height="31" viewBox="0 0 222 31" fill="none" xmlns="http://www.w3.org/2000/svg">
<path id="Vector" d="M10.8881 20.0922H6.22202V30.5148H0.365356V2.04363H10.9272C14.285 2.04363 16.8752 2.79312 18.6972 4.2924C20.5195 5.79167 21.4305 7.91 21.4305 10.6474C21.4305 12.59 21.0073 14.213 20.1616 15.5165C19.3286 16.8072 18.0594 17.837 16.3546 18.6063L22.5042 30.2411V30.5148H16.2177L10.8881 20.0922ZM6.22202 15.3407H10.9467C12.4174 15.3407 13.5561 14.9692 14.3632 14.2261C15.1701 13.4699 15.5736 12.4334 15.5736 11.1168C15.5736 9.77415 15.1896 8.71818 14.4218 7.94894C13.6669 7.17997 12.5021 6.79535 10.9272 6.79535H6.22202V15.3407ZM24.6516 19.7404C24.6516 17.6415 25.0551 15.7707 25.8622 14.1282C26.6691 12.4857 27.8275 11.2147 29.3371 10.3151C30.8601 9.41567 32.6235 8.96598 34.6279 8.96598C37.4784 8.96598 39.8015 9.83923 41.5977 11.5863C43.4066 13.3331 44.4154 15.7056 44.6236 18.7039L44.6628 20.1509C44.6628 23.3969 43.7582 26.0042 41.9489 27.9726C40.14 29.9282 37.7124 30.9058 34.6671 30.9058C31.6214 30.9058 29.1875 29.9282 27.3655 27.9726C25.5562 26.0172 24.6516 23.358 24.6516 19.9946V19.7404ZM30.2939 20.1509C30.2939 22.1585 30.6713 23.6967 31.4262 24.7658C32.1812 25.8217 33.2613 26.3496 34.6671 26.3496C36.0337 26.3496 37.1007 25.8281 37.8687 24.7852C38.6367 23.7295 39.0205 22.0478 39.0205 19.7404C39.0205 17.7719 38.6367 16.2465 37.8687 15.1647C37.1007 14.0826 36.0206 13.5417 34.6279 13.5417C33.2482 13.5417 32.1812 14.0826 31.4262 15.1647C30.6713 16.2334 30.2939 17.8957 30.2939 20.1509ZM56.9231 26.3496C57.9643 26.3496 58.8103 26.0628 59.4612 25.4894C60.1117 24.9157 60.4502 24.1531 60.4763 23.2014H65.7671C65.754 24.6353 65.3633 25.9522 64.5956 27.1514C63.8276 28.3378 62.7733 29.2633 61.4328 29.9282C60.1053 30.5799 58.6346 30.9058 57.0208 30.9058C54.001 30.9058 51.6192 29.9477 49.8753 28.0313C48.1313 26.1021 47.2592 23.4425 47.2592 20.0532V19.6817C47.2592 16.4226 48.1246 13.822 49.8558 11.8794C51.5868 9.93712 53.9621 8.96598 56.9817 8.96598C59.6236 8.96598 61.7388 9.72187 63.3265 11.2342C64.9274 12.7332 65.741 14.7345 65.7671 17.2374H60.4763C60.4502 16.1422 60.1117 15.2559 59.4612 14.5779C58.8103 13.8871 57.9513 13.5417 56.8839 13.5417C55.5695 13.5417 54.5738 14.0239 53.8971 14.9886C53.2333 15.9403 52.9015 17.4916 52.9015 19.6425V20.2293C52.9015 22.4063 53.2333 23.9707 53.8971 24.9223C54.5608 25.8737 55.5695 26.3496 56.9231 26.3496ZM76.6607 22.0281L74.6302 24.0619V30.5148H68.9882V0.479279H74.6302V17.1201L75.7236 15.712L81.1313 9.35699H87.9059L80.2725 18.176L88.5695 30.5148H82.0881L76.6607 22.0281ZM99.6781 30.9058C96.5805 30.9058 94.0555 29.9541 92.1033 28.051C90.1641 26.1477 89.1943 23.6122 89.1943 20.4443V19.8967C89.1943 17.7719 89.6044 15.875 90.4243 14.2063C91.2442 12.5246 92.4026 11.2342 93.8995 10.3348C95.4091 9.42207 97.1273 8.96598 99.0534 8.96598C101.943 8.96598 104.214 9.87844 105.867 11.7034C107.533 13.5286 108.366 16.1164 108.366 19.4664V21.7739H94.9146C95.0967 23.1558 95.6434 24.2638 96.5544 25.0981C97.4785 25.9324 98.6435 26.3496 100.049 26.3496C102.223 26.3496 103.921 25.5611 105.145 23.9837L107.917 27.0927C107.071 28.2921 105.925 29.2308 104.481 29.9085C103.036 30.5735 101.435 30.9058 99.6781 30.9058ZM99.0339 13.5417C97.9147 13.5417 97.0037 13.9196 96.3007 14.6758C95.611 15.4319 95.1684 16.5138 94.9732 17.9218H102.821V17.4721C102.795 16.2207 102.457 15.2559 101.806 14.5779C101.156 13.8871 100.231 13.5417 99.0339 13.5417ZM118.342 4.15557V9.35699H121.954V13.5024H118.342V24.0619C118.342 24.8439 118.492 25.4046 118.791 25.7436C119.09 26.0823 119.663 26.252 120.509 26.252C121.134 26.252 121.687 26.2063 122.168 26.1151V30.3974C121.062 30.7364 119.923 30.9058 118.752 30.9058C114.796 30.9058 112.778 28.9048 112.7 24.9026V13.5024H109.615V9.35699H112.7V4.15557H118.342ZM148.582 30.5148H142.726L131.325 11.7818V30.5148H125.468V2.04363H131.325L142.746 20.8158V2.04363H148.582V30.5148ZM163.048 30.9058C159.952 30.9058 157.426 29.9541 155.474 28.051C153.536 26.1477 152.567 23.6122 152.567 20.4443V19.8967C152.567 17.7719 152.975 15.875 153.797 14.2063C154.616 12.5246 155.774 11.2342 157.27 10.3348C158.781 9.42207 160.499 8.96598 162.423 8.96598C165.314 8.96598 167.585 9.87844 169.237 11.7034C170.903 13.5286 171.736 16.1164 171.736 19.4664V21.7739H158.286C158.467 23.1558 159.014 24.2638 159.925 25.0981C160.849 25.9324 162.015 26.3496 163.42 26.3496C165.594 26.3496 167.294 25.5611 168.515 23.9837L171.289 27.0927C170.442 28.2921 169.296 29.2308 167.852 29.9085C166.408 30.5735 164.806 30.9058 163.048 30.9058ZM162.404 13.5417C161.285 13.5417 160.374 13.9196 159.672 14.6758C158.983 15.4319 158.539 16.5138 158.345 17.9218H166.194V17.4721C166.166 16.2207 165.828 15.2559 165.178 14.5779C164.528 13.8871 163.603 13.5417 162.404 13.5417ZM193.33 22.8299L196.101 9.35699H201.548L196.159 30.5148H191.436L187.435 17.1982L183.431 30.5148H178.728L173.338 9.35699H178.786L181.537 22.8104L185.403 9.35699H189.484L193.33 22.8299ZM215.801 24.6681C215.801 23.977 215.456 23.4361 214.765 23.0451C214.09 22.641 212.996 22.2823 211.486 21.9694C206.463 20.9137 203.95 18.7756 203.95 15.5557C203.95 13.6785 204.725 12.1141 206.274 10.8627C207.835 9.59811 209.873 8.96598 212.383 8.96598C215.065 8.96598 217.206 9.59811 218.808 10.8627C220.421 12.1272 221.229 13.7697 221.229 15.7904H215.587C215.587 14.982 215.326 14.3173 214.804 13.7958C214.285 13.2613 213.471 12.9941 212.363 12.9941C211.414 12.9941 210.678 13.209 210.159 13.6393C209.637 14.0695 209.378 14.6171 209.378 15.2821C209.378 15.9078 209.67 16.4162 210.256 16.8072C210.855 17.1851 211.858 17.5177 213.263 17.8045C214.668 18.0781 215.853 18.391 216.817 18.7431C219.796 19.838 221.287 21.735 221.287 24.4334C221.287 26.3626 220.46 27.927 218.808 29.1265C217.153 30.3126 215.02 30.9058 212.402 30.9058C210.633 30.9058 209.059 30.5929 207.679 29.9672C206.313 29.3284 205.238 28.4615 204.458 27.3666C203.678 26.2584 203.286 25.0656 203.286 23.7879H208.634C208.687 24.7919 209.059 25.5611 209.748 26.0954C210.439 26.6299 211.361 26.8972 212.521 26.8972C213.602 26.8972 214.415 26.6953 214.962 26.2909C215.52 25.8737 215.801 25.3328 215.801 24.6681Z" fill="#E1E1E6"/>
</svg>
